<mxfile host="app.diagrams.net" modified="2024-04-08T11:48:24.094Z" agent="Mozilla/5.0 (Windows NT 10.0; Win64; x64) AppleWebKit/537.36 (KHTML, like Gecko) Chrome/123.0.0.0 Safari/537.36" etag="Dz3FPBlGeqx1EC7QqxyJ" version="24.2.1" type="github">
  <diagram name="第 1 页" id="VFYnRgWjaz1VF4FwcoZw">
    <mxGraphModel dx="1077" dy="592" grid="1" gridSize="10" guides="1" tooltips="1" connect="1" arrows="1" fold="1" page="1" pageScale="1" pageWidth="827" pageHeight="1169" math="0" shadow="0">
      <root>
        <mxCell id="0" />
        <mxCell id="1" parent="0" />
        <mxCell id="UO7SThNuFkfZIsemxCIS-1" value="&lt;font style=&quot;font-size: 14px;&quot;&gt;Create_offset&lt;/font&gt;" style="rounded=1;whiteSpace=wrap;html=1;fontSize=14;" vertex="1" parent="1">
          <mxGeometry x="120" y="255" width="120" height="30" as="geometry" />
        </mxCell>
        <mxCell id="UO7SThNuFkfZIsemxCIS-2" value="&lt;span style=&quot;font-size: 14px;&quot;&gt;initia_offset&lt;/span&gt;" style="rounded=1;whiteSpace=wrap;html=1;fontSize=14;" vertex="1" parent="1">
          <mxGeometry x="30.5" y="320.08" width="140" height="30" as="geometry" />
        </mxCell>
        <mxCell id="UO7SThNuFkfZIsemxCIS-3" value="&lt;span style=&quot;font-size: 14px;&quot;&gt;offset_pwr&lt;/span&gt;&lt;div style=&quot;font-size: 14px;&quot;&gt;&lt;span style=&quot;font-size: 14px;&quot;&gt;(_tracking)&lt;/span&gt;&lt;/div&gt;" style="rounded=1;whiteSpace=wrap;html=1;fontSize=14;" vertex="1" parent="1">
          <mxGeometry x="30" y="390" width="140" height="45" as="geometry" />
        </mxCell>
        <mxCell id="UO7SThNuFkfZIsemxCIS-4" value="&lt;span style=&quot;font-size: 14px;&quot;&gt;initia_offset_orbit&lt;/span&gt;" style="rounded=1;whiteSpace=wrap;html=1;fontSize=14;" vertex="1" parent="1">
          <mxGeometry x="190.5" y="320.08" width="140" height="30" as="geometry" />
        </mxCell>
        <mxCell id="UO7SThNuFkfZIsemxCIS-5" value="&lt;font style=&quot;font-size: 14px;&quot;&gt;offset_slc&lt;/font&gt;&lt;div style=&quot;font-size: 14px;&quot;&gt;&lt;font style=&quot;font-size: 14px;&quot;&gt;(_tracking)&lt;/font&gt;&lt;/div&gt;" style="rounded=1;whiteSpace=wrap;html=1;fontSize=14;" vertex="1" parent="1">
          <mxGeometry x="190" y="390" width="140" height="45" as="geometry" />
        </mxCell>
        <mxCell id="UO7SThNuFkfZIsemxCIS-7" value="" style="rounded=0;whiteSpace=wrap;html=1;fillColor=#f8cecc;strokeColor=#b85450;opacity=30;fontSize=14;" vertex="1" parent="1">
          <mxGeometry x="20" y="310.08" width="320" height="50" as="geometry" />
        </mxCell>
        <mxCell id="UO7SThNuFkfZIsemxCIS-17" value="" style="edgeStyle=orthogonalEdgeStyle;rounded=0;orthogonalLoop=1;jettySize=auto;html=1;" edge="1" parent="1" source="UO7SThNuFkfZIsemxCIS-10" target="UO7SThNuFkfZIsemxCIS-13">
          <mxGeometry relative="1" as="geometry" />
        </mxCell>
        <mxCell id="UO7SThNuFkfZIsemxCIS-10" value="" style="rounded=0;whiteSpace=wrap;html=1;fillColor=#f8cecc;strokeColor=#b85450;opacity=30;fontSize=14;" vertex="1" parent="1">
          <mxGeometry x="20" y="382.5" width="321" height="59" as="geometry" />
        </mxCell>
        <mxCell id="UO7SThNuFkfZIsemxCIS-28" value="" style="edgeStyle=orthogonalEdgeStyle;rounded=0;orthogonalLoop=1;jettySize=auto;html=1;" edge="1" parent="1" source="UO7SThNuFkfZIsemxCIS-13" target="UO7SThNuFkfZIsemxCIS-22">
          <mxGeometry relative="1" as="geometry" />
        </mxCell>
        <mxCell id="UO7SThNuFkfZIsemxCIS-13" value="&lt;font style=&quot;font-size: 14px;&quot;&gt;offset_fit&lt;/font&gt;" style="rounded=1;whiteSpace=wrap;html=1;fontSize=14;" vertex="1" parent="1">
          <mxGeometry x="120" y="470" width="120" height="30" as="geometry" />
        </mxCell>
        <mxCell id="UO7SThNuFkfZIsemxCIS-14" value="&lt;p style=&quot;language:en-CH;margin-top:0pt;margin-bottom:0pt;margin-left:0in;&lt;br/&gt;text-align:left;direction:ltr;unicode-bidi:embed;mso-line-break-override:none;&lt;br/&gt;word-break:normal;punctuation-wrap:hanging&quot;&gt;&lt;span style=&quot;color: rgb(192, 0, 0); font-weight: normal; font-style: normal; vertical-align: baseline;&quot;&gt;&lt;font style=&quot;font-size: 12px;&quot;&gt;Generation of offset parameter file&lt;/font&gt;&lt;/span&gt;&lt;/p&gt;" style="text;whiteSpace=wrap;html=1;align=center;" vertex="1" parent="1">
          <mxGeometry x="354.5" y="250" width="221" height="30" as="geometry" />
        </mxCell>
        <mxCell id="UO7SThNuFkfZIsemxCIS-15" value="&lt;p style=&quot;margin-top: 0pt; margin-bottom: 0pt; margin-left: 0in; direction: ltr; unicode-bidi: embed; word-break: normal;&quot;&gt;&lt;font face=&quot;Helvetica&quot; style=&quot;font-size: 12px;&quot;&gt;&lt;font color=&quot;#c00000&quot;&gt;Initial same estimation of offsets for all pixles&lt;/font&gt;&lt;br&gt;&lt;/font&gt;&lt;/p&gt;&lt;p style=&quot;margin-top: 0pt; margin-bottom: 0pt; margin-left: 0in; direction: ltr; unicode-bidi: embed; word-break: normal;&quot;&gt;&lt;span style=&quot;color: black;&quot;&gt;&lt;font face=&quot;V_lDkOHhxB9C8dfyVclu&quot; style=&quot;font-size: 12px;&quot;&gt;using cross-correlation/ orbit vectors &lt;/font&gt;&lt;/span&gt;&lt;/p&gt;" style="text;whiteSpace=wrap;html=1;align=center;" vertex="1" parent="1">
          <mxGeometry x="320" y="315" width="290" height="40" as="geometry" />
        </mxCell>
        <mxCell id="UO7SThNuFkfZIsemxCIS-16" value="&lt;p style=&quot;margin-top: 0pt; margin-bottom: 0pt; margin-left: 0in; direction: ltr; unicode-bidi: embed; word-break: normal;&quot;&gt;&lt;span style=&quot;color: rgb(192, 0, 0);&quot;&gt;&lt;font style=&quot;font-size: 12px;&quot;&gt;Calculate offsets for each imagewindows &lt;/font&gt;&lt;/span&gt;&lt;/p&gt;&lt;p style=&quot;margin-top: 0pt; margin-bottom: 0pt; margin-left: 0in; direction: ltr; unicode-bidi: embed; word-break: normal;&quot;&gt;&lt;span style=&quot;color: black;&quot;&gt;&lt;font style=&quot;font-size: 12px;&quot;&gt;With cross-correlation/ fringe visibility&lt;/font&gt;&lt;/span&gt;&lt;/p&gt;&lt;p style=&quot;margin-top: 0pt; margin-bottom: 0pt; margin-left: 0in; direction: ltr; unicode-bidi: embed; word-break: normal;&quot;&gt;&lt;font face=&quot;Helvetica&quot; style=&quot;font-size: 12px;&quot;&gt;&lt;span style=&quot;color: black;&quot;&gt;specify position of the &lt;/span&gt;windows (tracking)&lt;/font&gt;&lt;/p&gt;" style="text;whiteSpace=wrap;html=1;align=center;" vertex="1" parent="1">
          <mxGeometry x="320" y="382.5" width="290" height="60" as="geometry" />
        </mxCell>
        <mxCell id="UO7SThNuFkfZIsemxCIS-18" value="&lt;p style=&quot;forced-color-adjust: none; font-family: Helvetica; font-size: 12px; font-style: normal; font-variant-ligatures: normal; font-variant-caps: normal; font-weight: 400; letter-spacing: normal; orphans: 2; text-indent: 0px; text-transform: none; widows: 2; word-spacing: 0px; -webkit-text-stroke-width: 0px; white-space: normal; background-color: rgb(251, 251, 251); text-decoration-thickness: initial; text-decoration-style: initial; text-decoration-color: initial; margin-top: 0pt; margin-bottom: 0pt; margin-left: 0in; direction: ltr; unicode-bidi: embed; word-break: normal;&quot;&gt;&lt;font color=&quot;#c00000&quot;&gt;compute offset polynomial iterativelty &lt;/font&gt;&lt;font color=&quot;#330000&quot;&gt;on range and azimuth respectively&lt;/font&gt;&lt;/p&gt;" style="text;whiteSpace=wrap;html=1;align=center;" vertex="1" parent="1">
          <mxGeometry x="362.5" y="465" width="200" height="40" as="geometry" />
        </mxCell>
        <mxCell id="UO7SThNuFkfZIsemxCIS-22" value="SLC_interp" style="rounded=1;whiteSpace=wrap;html=1;fontSize=14;" vertex="1" parent="1">
          <mxGeometry x="120" y="530" width="120" height="30" as="geometry" />
        </mxCell>
        <mxCell id="UO7SThNuFkfZIsemxCIS-26" value="&lt;div style=&quot;text-align: center;&quot;&gt;&lt;font color=&quot;#c00000&quot;&gt;resample SLC2 with reference to SLC1 &lt;/font&gt;&lt;font color=&quot;#330000&quot;&gt;using the polynomial&lt;/font&gt;&lt;/div&gt;" style="text;whiteSpace=wrap;html=1;" vertex="1" parent="1">
          <mxGeometry x="345" y="525" width="235" height="40" as="geometry" />
        </mxCell>
        <mxCell id="UO7SThNuFkfZIsemxCIS-30" value="SLC_interp_map" style="rounded=1;whiteSpace=wrap;html=1;fontSize=14;" vertex="1" parent="1">
          <mxGeometry x="120" y="595" width="120" height="30" as="geometry" />
        </mxCell>
        <mxCell id="UO7SThNuFkfZIsemxCIS-40" value="SLC1" style="rounded=0;whiteSpace=wrap;html=1;" vertex="1" parent="1">
          <mxGeometry x="110" y="201" width="61" height="29" as="geometry" />
        </mxCell>
        <mxCell id="UO7SThNuFkfZIsemxCIS-41" value="SLC2" style="rounded=0;whiteSpace=wrap;html=1;" vertex="1" parent="1">
          <mxGeometry x="190" y="201" width="60" height="29" as="geometry" />
        </mxCell>
        <mxCell id="UO7SThNuFkfZIsemxCIS-42" value="" style="endArrow=classic;html=1;rounded=0;entryX=0.5;entryY=0;entryDx=0;entryDy=0;" edge="1" parent="1" target="UO7SThNuFkfZIsemxCIS-1">
          <mxGeometry width="50" height="50" relative="1" as="geometry">
            <mxPoint x="130.5" y="230" as="sourcePoint" />
            <mxPoint x="177" y="255" as="targetPoint" />
            <Array as="points">
              <mxPoint x="130.5" y="240" />
              <mxPoint x="180.5" y="240" />
            </Array>
          </mxGeometry>
        </mxCell>
        <mxCell id="UO7SThNuFkfZIsemxCIS-44" value="" style="endArrow=classic;html=1;rounded=0;entryX=0.5;entryY=0;entryDx=0;entryDy=0;exitX=0.5;exitY=1;exitDx=0;exitDy=0;" edge="1" parent="1" source="UO7SThNuFkfZIsemxCIS-41" target="UO7SThNuFkfZIsemxCIS-1">
          <mxGeometry width="50" height="50" relative="1" as="geometry">
            <mxPoint x="250.5" y="201" as="sourcePoint" />
            <mxPoint x="177" y="255" as="targetPoint" />
            <Array as="points">
              <mxPoint x="220.5" y="240" />
              <mxPoint x="180.5" y="240" />
            </Array>
          </mxGeometry>
        </mxCell>
        <mxCell id="UO7SThNuFkfZIsemxCIS-49" value="" style="edgeStyle=orthogonalEdgeStyle;rounded=0;orthogonalLoop=1;jettySize=auto;html=1;exitX=0.471;exitY=0.998;exitDx=0;exitDy=0;exitPerimeter=0;entryX=0.487;entryY=-0.01;entryDx=0;entryDy=0;entryPerimeter=0;" edge="1" parent="1" source="UO7SThNuFkfZIsemxCIS-1">
          <mxGeometry relative="1" as="geometry">
            <mxPoint x="179.77999999999997" y="289.9299999999999" as="sourcePoint" />
            <mxPoint x="179.83999999999992" y="309.58" as="targetPoint" />
          </mxGeometry>
        </mxCell>
        <mxCell id="UO7SThNuFkfZIsemxCIS-51" value="" style="edgeStyle=orthogonalEdgeStyle;rounded=0;orthogonalLoop=1;jettySize=auto;html=1;exitX=0.501;exitY=1.026;exitDx=0;exitDy=0;exitPerimeter=0;entryX=0.5;entryY=0;entryDx=0;entryDy=0;" edge="1" parent="1" source="UO7SThNuFkfZIsemxCIS-7">
          <mxGeometry relative="1" as="geometry">
            <mxPoint x="179.43" y="361.48" as="sourcePoint" />
            <mxPoint x="180.56999999999994" y="382.5" as="targetPoint" />
          </mxGeometry>
        </mxCell>
        <mxCell id="UO7SThNuFkfZIsemxCIS-70" value="&lt;font style=&quot;font-size: 14px;&quot;&gt;Create_offset&lt;/font&gt;" style="rounded=1;whiteSpace=wrap;html=1;fontSize=14;" vertex="1" parent="1">
          <mxGeometry x="130" y="734" width="120" height="30" as="geometry" />
        </mxCell>
        <mxCell id="UO7SThNuFkfZIsemxCIS-71" value="&lt;span style=&quot;font-size: 14px;&quot;&gt;initia_offset&lt;/span&gt;" style="rounded=1;whiteSpace=wrap;html=1;fontSize=14;" vertex="1" parent="1">
          <mxGeometry x="40.5" y="799.0799999999999" width="140" height="30" as="geometry" />
        </mxCell>
        <mxCell id="UO7SThNuFkfZIsemxCIS-73" value="&lt;span style=&quot;font-size: 14px;&quot;&gt;initia_offset_orbit&lt;/span&gt;" style="rounded=1;whiteSpace=wrap;html=1;fontSize=14;" vertex="1" parent="1">
          <mxGeometry x="200.5" y="799.0799999999999" width="140" height="30" as="geometry" />
        </mxCell>
        <mxCell id="UO7SThNuFkfZIsemxCIS-75" value="" style="rounded=0;whiteSpace=wrap;html=1;fillColor=#f8cecc;strokeColor=#b85450;opacity=30;fontSize=14;" vertex="1" parent="1">
          <mxGeometry x="30" y="789.0799999999999" width="320" height="50" as="geometry" />
        </mxCell>
        <mxCell id="UO7SThNuFkfZIsemxCIS-82" value="SLC1" style="rounded=0;whiteSpace=wrap;html=1;" vertex="1" parent="1">
          <mxGeometry x="120" y="680" width="61" height="29" as="geometry" />
        </mxCell>
        <mxCell id="UO7SThNuFkfZIsemxCIS-83" value="SLC2" style="rounded=0;whiteSpace=wrap;html=1;" vertex="1" parent="1">
          <mxGeometry x="200" y="680" width="60" height="29" as="geometry" />
        </mxCell>
        <mxCell id="UO7SThNuFkfZIsemxCIS-84" value="" style="endArrow=classic;html=1;rounded=0;entryX=0.5;entryY=0;entryDx=0;entryDy=0;" edge="1" parent="1" target="UO7SThNuFkfZIsemxCIS-70">
          <mxGeometry width="50" height="50" relative="1" as="geometry">
            <mxPoint x="140.5" y="709" as="sourcePoint" />
            <mxPoint x="187" y="734" as="targetPoint" />
            <Array as="points">
              <mxPoint x="140.5" y="719" />
              <mxPoint x="190.5" y="719" />
            </Array>
          </mxGeometry>
        </mxCell>
        <mxCell id="UO7SThNuFkfZIsemxCIS-85" value="" style="endArrow=classic;html=1;rounded=0;entryX=0.5;entryY=0;entryDx=0;entryDy=0;exitX=0.5;exitY=1;exitDx=0;exitDy=0;" edge="1" parent="1" source="UO7SThNuFkfZIsemxCIS-83" target="UO7SThNuFkfZIsemxCIS-70">
          <mxGeometry width="50" height="50" relative="1" as="geometry">
            <mxPoint x="260.5" y="680" as="sourcePoint" />
            <mxPoint x="187" y="734" as="targetPoint" />
            <Array as="points">
              <mxPoint x="230.5" y="719" />
              <mxPoint x="190.5" y="719" />
            </Array>
          </mxGeometry>
        </mxCell>
        <mxCell id="UO7SThNuFkfZIsemxCIS-86" value="" style="edgeStyle=orthogonalEdgeStyle;rounded=0;orthogonalLoop=1;jettySize=auto;html=1;exitX=0.471;exitY=0.998;exitDx=0;exitDy=0;exitPerimeter=0;entryX=0.487;entryY=-0.01;entryDx=0;entryDy=0;entryPerimeter=0;" edge="1" parent="1" source="UO7SThNuFkfZIsemxCIS-70">
          <mxGeometry relative="1" as="geometry">
            <mxPoint x="189.77999999999997" y="768.9299999999998" as="sourcePoint" />
            <mxPoint x="189.83999999999992" y="788.5799999999999" as="targetPoint" />
          </mxGeometry>
        </mxCell>
      </root>
    </mxGraphModel>
  </diagram>
</mxfile>
